<?xml version="1.0" encoding="UTF-8"?>
<svg version="1.1" viewBox="0 0 2048 1476" width="512" height="369" xmlns="http://www.w3.org/2000/svg">
<path transform="translate(993,495)" d="m0 0h59l30 3 38 7 24 6 25 8 28 10 25 11 16 8 25 13 26 16 15 10 18 13 13 10 13 11 11 9 16 15 8 7 15 15v2h2l7 8 13 14 9 11 13 16 7 9 7 10-4 6-13 17-14 17-2 3h-2l-2 4-13 14-1 2h-2l-2 4-24 24-8 7-14 13-22 18-9 7-18 13-20 13-20 12-16 9-15 8-21 10-36 14-24 8-38 10-34 6-28 3h-62l-27-3-24-4-22-5-29-8-26-9-32-13-27-13-20-11-28-17-19-13-16-12-13-10-14-12-11-9-11-11-8-7-19-19-7-8-14-15-11-14-11-13-10-13-1-5 12-14 10-13 11-13 9-11 7-7 1-2h2l2-4 30-30 8-7 10-9 10-8 16-13 11-8 17-12 17-11 15-9 16-9 23-12 22-10 23-9 33-11 27-7 36-7 21-3zm22 78-20 2-18 4-19 7-16 8-18 12-10 9-8 7-9 10-13 18-7 12-10 25-6 25-1 7v37l5 24 7 21 8 17 10 15 7 9 11 12 9 9 18 13 18 10 21 8 20 5 12 2h33l24-4 19-6 18-8 17-10 16-13 10-9 9-10 12-17 12-23 8-25 3-14 1-9v-30l-3-20-7-24-8-18-10-17-11-14-11-12-10-9-16-11-18-10-20-8-16-4-13-2-14-1z"/>
<path transform="translate(1014,647)" d="m0 0h10l1 4-1 14 2 12 6 16 7 10 5 5v2l4 2 10 6 13 5 9 2h14l15-3 4-1 1 7v19l-3 15-5 13-8 14-11 13-12 10-15 8-15 5-9 2h-25l-19-5-16-8-9-7-9-8-9-11-6-10-6-14-3-13v-27l4-16 5-12 6-10 13-15 11-9 14-8 15-5z"/>
</svg>
