<svg width="24" height="26" viewBox="0 0 24 26" fill="none" xmlns="http://www.w3.org/2000/svg">
<path d="M13 22.5875C13.0333 22.9306 12.9293 23.2241 12.688 23.4683C12.446 23.7116 12.175 23.8063 11.875 23.7521C8.975 23.2826 6.675 22.0682 4.975 20.1088C3.275 18.1502 2.30834 15.4826 2.075 12.1063C2.04167 11.7451 2.13734 11.4425 2.362 11.1984C2.58734 10.955 2.86667 10.8604 3.2 10.9146C6.25 11.366 8.6 12.6389 10.25 14.7333C11.9 16.8278 12.8167 19.4458 13 22.5875ZM11.225 3.22292C11.425 2.91598 11.6873 2.76684 12.012 2.7755C12.3373 2.78489 12.6 2.94306 12.8 3.25C13.55 4.3875 14.2043 5.63334 14.763 6.9875C15.321 8.34167 15.6583 9.47917 15.775 10.4C15.125 10.725 14.4 11.2529 13.6 11.9838C12.8 12.7154 12.275 13.2799 12.025 13.6771C11.7917 13.2799 11.2543 12.6974 10.413 11.9297C9.571 11.1627 8.85834 10.6528 8.275 10.4C8.40834 9.49723 8.746 8.35503 9.288 6.97342C9.82934 5.59253 10.475 4.34236 11.225 3.22292ZM20.875 10.9146C21.1917 10.8785 21.4583 10.9731 21.675 11.1984C21.8917 11.4245 21.9917 11.7181 21.975 12.0792C21.8417 14.9861 21.1127 17.3471 19.788 19.162C18.4627 20.9762 16.8583 22.2444 14.975 22.9667C14.9417 21.8653 14.7877 20.6151 14.513 19.2162C14.2377 17.8165 13.8083 16.6111 13.225 15.6C13.9417 14.4083 15.0043 13.3792 16.413 12.5125C17.821 11.6458 19.3083 11.1132 20.875 10.9146Z" fill="#2F2F87"/>
</svg>
