<svg width="20" height="28" viewBox="0 0 20 28" fill="none" xmlns="http://www.w3.org/2000/svg">
<path d="M0 18.8242C1.67 17.7382 3.33 16.6522 5 16.1743V4.34404C5 3.19193 5.31607 2.08701 5.87868 1.27234C6.44129 0.457675 7.20435 0 8 0C9.31 0 10.42 1.20185 10.83 2.89603H8C7.73478 2.89603 7.48043 3.04859 7.29289 3.32014C7.10536 3.5917 7 3.96 7 4.34404V5.79205H12V4.34404C12 3.19193 12.3161 2.08701 12.8787 1.27234C13.4413 0.457675 14.2044 0 15 0C16.31 0 17.42 1.20185 17.83 2.89603H15C14.7348 2.89603 14.4804 3.04859 14.2929 3.32014C14.1054 3.5917 14 3.96 14 4.34404V18.7373C16 18.2739 18 15.9281 20 15.9281V18.8242C17.78 18.8242 15.56 21.7202 13.33 21.7202C11.11 21.7202 8.89 18.8242 6.67 18.8242C4.44 18.8242 2.22 20.2722 0 21.7202V18.8242ZM12 8.68808H7V11.5841H12V8.68808ZM12 14.4801H7V15.9281C8.67 16.1598 10.33 17.825 12 18.5201V14.4801ZM0 24.6162C2.22 23.1682 4.44 21.7202 6.67 21.7202C8.89 21.7202 11.11 24.6162 13.33 24.6162C15.56 24.6162 17.78 21.7202 20 21.7202V24.6162C17.78 24.6162 15.56 27.5123 13.33 27.5123C11.11 27.5123 8.89 24.6162 6.67 24.6162C4.44 24.6162 2.22 26.0642 0 27.5123V24.6162Z" fill="#2F2F87"/>
</svg>
