<svg width="24" height="26" viewBox="0 0 24 26" fill="none" xmlns="http://www.w3.org/2000/svg">
<path d="M16.2495 15.4528C15.0826 14.3291 13.5755 13.7083 12.0141 13.7083C10.4528 13.7083 8.94569 14.3291 7.77873 15.4528C7.68013 15.5453 7.59945 15.658 7.5414 15.7845C7.48335 15.911 7.44908 16.0487 7.44057 16.1897C7.43207 16.3307 7.4495 16.472 7.49186 16.6057C7.53421 16.7393 7.60065 16.8624 7.68731 16.968C7.77398 17.0735 7.87913 17.1594 7.99668 17.2205C8.11422 17.2817 8.24181 17.3169 8.37204 17.3242C8.50226 17.3315 8.63252 17.3107 8.75526 17.263C8.878 17.2153 8.99077 17.1417 9.08701 17.0464C9.89355 16.2698 10.9351 15.8409 12.0141 15.8409C13.0932 15.8409 14.1347 16.2698 14.9412 17.0464C15.1364 17.2343 15.3925 17.3305 15.6532 17.3139C15.9139 17.2973 16.1578 17.1692 16.3313 16.9577C16.5048 16.7463 16.5936 16.4688 16.5783 16.1864C16.563 15.904 16.4447 15.6398 16.2495 15.4518V15.4528Z" fill="#2F2F87"/>
<path d="M12.0135 9.32844C9.37059 9.32449 6.82577 10.4127 4.89789 12.3713C4.80029 12.466 4.72112 12.5809 4.66503 12.7092C4.60894 12.8375 4.57707 12.9766 4.57127 13.1184C4.56548 13.2603 4.58589 13.4019 4.63129 13.5351C4.6767 13.6682 4.74619 13.7903 4.83569 13.8939C4.9252 13.9976 5.03291 14.0809 5.15252 14.1389C5.27213 14.1969 5.40123 14.2285 5.53223 14.2317C5.66324 14.2349 5.79353 14.2098 5.91546 14.1578C6.03738 14.1058 6.14849 14.0279 6.24227 13.9287C7.80765 12.3433 9.87057 11.4613 12.0135 11.4613C14.1565 11.4613 16.2194 12.3433 17.7848 13.9287C17.8785 14.0279 17.9897 14.1058 18.1116 14.1578C18.2335 14.2098 18.3638 14.2349 18.4948 14.2317C18.6258 14.2285 18.7549 14.1969 18.8745 14.1389C18.9941 14.0809 19.1018 13.9976 19.1913 13.8939C19.2808 13.7903 19.3503 13.6682 19.3957 13.5351C19.4412 13.4019 19.4616 13.2603 19.4558 13.1184C19.45 12.9766 19.4181 12.8375 19.362 12.7092C19.3059 12.5809 19.2268 12.466 19.1291 12.3713C17.2013 10.4127 14.6565 9.32449 12.0135 9.32844Z" fill="#2F2F87"/>
<path d="M21.6567 8.93047C19.0027 6.36519 15.5703 4.94745 12.0135 4.94745C8.45677 4.94745 5.02435 6.36519 2.37041 8.93047C2.27067 9.02277 2.18896 9.13574 2.13009 9.26273C2.07122 9.38973 2.03637 9.52819 2.0276 9.66998C2.01882 9.81177 2.03629 9.95403 2.07899 10.0884C2.12168 10.2228 2.18874 10.3465 2.27621 10.4524C2.36369 10.5583 2.46982 10.6442 2.58837 10.7051C2.70692 10.7659 2.8355 10.8005 2.96655 10.8067C3.0976 10.8129 3.22848 10.7907 3.3515 10.7414C3.47452 10.6921 3.5872 10.6166 3.68291 10.5194C5.97586 8.30402 8.94091 7.07973 12.0133 7.07973C15.0857 7.07973 18.0507 8.30402 20.3437 10.5194C20.5383 10.708 20.7941 10.805 21.0548 10.7893C21.3155 10.7735 21.5597 10.6462 21.7338 10.4354C21.9078 10.2245 21.9974 9.94742 21.9829 9.66501C21.9683 9.38259 21.8508 9.11801 21.6562 8.92945L21.6567 8.93047Z" fill="#2F2F87"/>
<path d="M12.0127 21.6029C12.8411 21.6029 13.5127 20.8754 13.5127 19.9779C13.5127 19.0804 12.8411 18.3529 12.0127 18.3529C11.1843 18.3529 10.5127 19.0804 10.5127 19.9779C10.5127 20.8754 11.1843 21.6029 12.0127 21.6029Z" fill="#2F2F87"/>
</svg>
