<svg width="23" height="20" viewBox="0 0 23 20" fill="none" xmlns="http://www.w3.org/2000/svg">
<path d="M22.4609 10C22.4609 10.7031 21.875 11.25 21.2109 11.25H19.9609L20 17.5C20 17.6172 20 17.7344 20 17.8125V18.4375C20 19.3359 19.2969 20 18.4375 20H17.8125C17.7344 20 17.6953 20 17.6562 20C17.6172 20 17.5391 20 17.5 20H15.3125C14.4141 20 13.75 19.3359 13.75 18.4375V15C13.75 14.3359 13.1641 13.75 12.5 13.75H10C9.29688 13.75 8.75 14.3359 8.75 15V18.4375C8.75 19.3359 8.04688 20 7.1875 20H5C4.92188 20 4.88281 20 4.80469 20C4.76562 20 4.72656 20 4.6875 20H4.0625C3.16406 20 2.5 19.3359 2.5 18.4375V14.0625C2.5 14.0625 2.5 14.0234 2.5 13.9844V11.25H1.25C0.546875 11.25 0 10.7031 0 10C0 9.64844 0.117188 9.33594 0.390625 9.0625L10.3906 0.351562C10.6641 0.078125 10.9766 0 11.25 0C11.5234 0 11.8359 0.117188 12.0703 0.3125L22.0312 9.0625C22.3438 9.33594 22.5 9.64844 22.4609 10Z" fill="#2F2F87"/>
</svg>
