<svg width="24" height="26" viewBox="0 0 24 26" fill="none" xmlns="http://www.w3.org/2000/svg">
<path d="M16 6.50002V13C16 14.1917 16.9 15.1667 18 15.1667H19V22.75C19 23.3459 19.45 23.8334 20 23.8334C20.55 23.8334 21 23.3459 21 22.75V3.39085C21 2.68669 20.39 2.16669 19.76 2.32919C17.6 2.90335 16 4.88585 16 6.50002ZM11 9.75002H9V3.25002C9 2.65419 8.55 2.16669 8 2.16669C7.45 2.16669 7 2.65419 7 3.25002V9.75002H5V3.25002C5 2.65419 4.55 2.16669 4 2.16669C3.45 2.16669 3 2.65419 3 3.25002V9.75002C3 12.1442 4.79 14.0834 7 14.0834V22.75C7 23.3459 7.45 23.8334 8 23.8334C8.55 23.8334 9 23.3459 9 22.75V14.0834C11.21 14.0834 13 12.1442 13 9.75002V3.25002C13 2.65419 12.55 2.16669 12 2.16669C11.45 2.16669 11 2.65419 11 3.25002V9.75002Z" fill="#2F2F87"/>
</svg>
