<svg width="20" height="20" viewBox="0 0 20 20" fill="none" xmlns="http://www.w3.org/2000/svg">
<path d="M10 20C4.45312 20 0 15.5469 0 10C0 4.49219 4.45312 0 10 0C15.5078 0 20 4.49219 20 10C20 15.5469 15.5078 20 10 20ZM9.0625 10C9.0625 10.3125 9.21875 10.625 9.45312 10.7812L13.2031 13.2812C13.6328 13.5938 14.2188 13.4766 14.4922 13.0469C14.8047 12.6172 14.6875 12.0312 14.2578 11.7188L10.9375 9.53125V4.6875C10.9375 4.17969 10.5078 3.75 9.96094 3.75C9.45312 3.75 9.02344 4.17969 9.02344 4.6875L9.0625 10Z" fill="#2F2F87"/>
</svg>
