<svg width="18" height="20" viewBox="0 0 18 20" fill="none" xmlns="http://www.w3.org/2000/svg">
<path d="M6.25 1.25V2.5H11.25V1.25C11.25 0.585938 11.7969 0 12.5 0C13.1641 0 13.75 0.585938 13.75 1.25V2.5H15.625C16.6406 2.5 17.5 3.35938 17.5 4.375V6.25H0V4.375C0 3.35938 0.820312 2.5 1.875 2.5H3.75V1.25C3.75 0.585938 4.29688 0 5 0C5.66406 0 6.25 0.585938 6.25 1.25ZM0 7.5H17.5V18.125C17.5 19.1797 16.6406 20 15.625 20H1.875C0.820312 20 0 19.1797 0 18.125V7.5ZM2.5 11.875C2.5 12.2266 2.77344 12.5 3.125 12.5H4.375C4.6875 12.5 5 12.2266 5 11.875V10.625C5 10.3125 4.6875 10 4.375 10H3.125C2.77344 10 2.5 10.3125 2.5 10.625V11.875ZM7.5 11.875C7.5 12.2266 7.77344 12.5 8.125 12.5H9.375C9.6875 12.5 10 12.2266 10 11.875V10.625C10 10.3125 9.6875 10 9.375 10H8.125C7.77344 10 7.5 10.3125 7.5 10.625V11.875ZM13.125 10C12.7734 10 12.5 10.3125 12.5 10.625V11.875C12.5 12.2266 12.7734 12.5 13.125 12.5H14.375C14.6875 12.5 15 12.2266 15 11.875V10.625C15 10.3125 14.6875 10 14.375 10H13.125ZM2.5 16.875C2.5 17.2266 2.77344 17.5 3.125 17.5H4.375C4.6875 17.5 5 17.2266 5 16.875V15.625C5 15.3125 4.6875 15 4.375 15H3.125C2.77344 15 2.5 15.3125 2.5 15.625V16.875ZM8.125 15C7.77344 15 7.5 15.3125 7.5 15.625V16.875C7.5 17.2266 7.77344 17.5 8.125 17.5H9.375C9.6875 17.5 10 17.2266 10 16.875V15.625C10 15.3125 9.6875 15 9.375 15H8.125ZM12.5 16.875C12.5 17.2266 12.7734 17.5 13.125 17.5H14.375C14.6875 17.5 15 17.2266 15 16.875V15.625C15 15.3125 14.6875 15 14.375 15H13.125C12.7734 15 12.5 15.3125 12.5 15.625V16.875Z" fill="#2F2F87"/>
</svg>
