<svg width="16" height="20" viewBox="0 0 16 20" fill="none" xmlns="http://www.w3.org/2000/svg">
<path d="M15.3169 1.61042V0.833333C15.3169 0.61232 15.2358 0.400358 15.0916 0.244078C14.9473 0.0877975 14.7516 0 14.5476 0H0.839937C0.635924 0 0.440267 0.0877975 0.296008 0.244078C0.15175 0.400358 0.0707062 0.61232 0.0707062 0.833333V1.61042C0.00051393 2.2026 -0.393236 6.33646 1.84619 9.14635C3.04186 10.6464 4.74811 11.4823 6.92455 11.6391V18.3333H3.0784C2.87439 18.3333 2.67873 18.4211 2.53447 18.5774C2.39021 18.7337 2.30917 18.9457 2.30917 19.1667C2.30917 19.3877 2.39021 19.5996 2.53447 19.7559C2.67873 19.9122 2.87439 20 3.0784 20H12.3092C12.5132 20 12.7088 19.9122 12.8531 19.7559C12.9974 19.5996 13.0784 19.3877 13.0784 19.1667C13.0784 18.9457 12.9974 18.7337 12.8531 18.5774C12.7088 18.4211 12.5132 18.3333 12.3092 18.3333H8.46301V11.6391C10.6395 11.4828 12.3457 10.6464 13.5414 9.14635C15.7808 6.33646 15.3861 2.2026 15.3169 1.61042ZM1.60051 1.78802C1.60628 1.74787 1.60917 1.7073 1.60917 1.66667H13.7784C13.7784 1.7073 13.7813 1.74787 13.7871 1.78802C13.8701 2.57835 13.8701 3.37634 13.7871 4.16667H1.6034C1.52037 3.37639 1.51941 2.57853 1.60051 1.78802Z" fill="#2F2F87"/>
</svg>
